<svg width="120" height="120" viewBox="0 0 120 120" fill="none" xmlns="http://www.w3.org/2000/svg">
<g id="Coin Exchange" clip-path="url(#clip0_458_37897)">
<g id="swap-coins-loading 1">
<path id="Vector" d="M69.375 62.8125C76.8826 62.8125 82.9688 56.7264 82.9688 49.2188C82.9688 41.7111 76.8826 35.625 69.375 35.625C61.8674 35.625 55.7812 41.7111 55.7812 49.2188C55.7812 56.7264 61.8674 62.8125 69.375 62.8125Z" fill="url(#paint0_linear_458_37897)"/>
<path id="Vector_2" d="M77.9323 47.3192L76.4484 46.0922C75.7472 45.509 73.6785 44.1977 70.4576 46.9048L66.5827 50.1616C65.5662 51.0155 63.9275 51.9331 62.586 50.818L61.9278 50.2736C61.8379 50.1989 61.8364 50.0594 61.9278 49.9847L65.4957 46.9863C65.5649 46.9268 65.6671 46.9268 65.7377 46.9863C66.0115 47.2128 66.6532 47.7434 66.6559 47.7462C67.1773 48.1759 67.9338 48.1676 68.4524 47.7324L68.9876 47.2833C69.0553 47.2253 69.0124 47.1133 68.9239 47.1175C68.1509 47.1478 67.7305 46.7996 67.5507 46.6504L66.064 45.4207C65.8014 45.2023 65.4196 45.2038 65.1582 45.4248L60.206 49.584C60.0884 49.6835 60 49.8161 59.964 49.9654C59.8991 50.2334 59.9945 50.5084 60.2005 50.6783L61.6843 51.9054C62.3855 52.4871 64.4543 53.7998 67.6752 51.0915L71.5501 47.8347C72.5665 46.9808 74.2053 46.0632 75.5467 47.1783L76.205 47.7227C76.2962 47.7974 76.2962 47.9369 76.205 48.0115L72.6371 51.01C72.568 51.068 72.4656 51.0695 72.3951 51.01C72.1212 50.7833 71.4796 50.2528 71.4767 50.2501C70.9554 49.8202 70.199 49.8286 69.6803 50.2638L69.1452 50.713C69.076 50.771 69.1203 50.8828 69.2089 50.8787C69.9818 50.8483 70.4023 51.1965 70.582 51.3457L72.0674 52.5742C72.33 52.7925 72.7118 52.7912 72.9731 52.57L77.9253 48.4094C78.0429 48.3099 78.1314 48.1787 78.1673 48.0281C78.2323 47.7587 78.1369 47.485 77.9308 47.315" fill="white"/>
<path id="Vector_3" d="M52.0312 78.2812C60.5744 78.2812 67.5 71.3557 67.5 62.8125C67.5 54.2693 60.5744 47.3438 52.0312 47.3438C43.4881 47.3438 36.5625 54.2693 36.5625 62.8125C36.5625 71.3557 43.4881 78.2812 52.0312 78.2812Z" fill="url(#paint1_linear_458_37897)"/>
<path id="Vector_4" d="M51.5216 71.4844C51.2902 71.4844 51.1028 71.297 51.1028 71.0659V69.6867C51.1028 69.4753 50.9447 69.2982 50.7361 69.2622C49.6698 69.0784 48.4463 68.6393 47.4912 67.8968C47.3288 67.7707 47.2988 67.5413 47.4099 67.3684L48.5914 65.5289C48.722 65.3256 48.997 65.2759 49.1975 65.411C50.2049 66.0902 51.025 66.3677 51.845 66.3677C52.9365 66.3677 53.3731 65.999 53.3731 65.1535C53.3731 63.419 47.741 63.1805 47.741 59.3863C47.741 57.3124 48.8572 55.8414 50.7741 55.3048C50.9641 55.2515 51.1028 55.0828 51.1028 54.8856V53.3872C51.1028 53.1561 51.2902 52.9688 51.5216 52.9688H53.129C53.3602 52.9688 53.5477 53.1561 53.5477 53.3872V54.8226C53.5477 55.0286 53.6983 55.202 53.8993 55.2474C54.9701 55.4892 55.834 56.0301 56.5728 56.7313C56.7299 56.8806 56.7347 57.1265 56.5922 57.2897L55.2654 58.8089C55.1128 58.9838 54.8477 58.9994 54.6652 58.856C54.0112 58.3423 53.4132 58.0854 52.7182 58.0854C51.7795 58.0854 51.3211 58.3456 51.3211 59.2129C51.3211 60.8607 56.9531 60.9474 56.9531 64.8933C56.9531 66.8958 55.9437 68.4856 53.8684 69.101C53.6823 69.1561 53.5477 69.3232 53.5477 69.5171V71.0659C53.5477 71.297 53.3602 71.4844 53.129 71.4844H51.5216Z" fill="white"/>
<g id="Group" filter="url(#filter0_ii_458_37897)">
<path id="Vector_5" d="M32.1939 40.195C35.0123 35.3144 39.0656 31.2616 43.9466 28.4438C48.8276 25.626 54.3643 24.1426 60.0002 24.1426C65.6361 24.1426 71.1728 25.626 76.0538 28.4438C80.9347 31.2616 84.9881 35.3144 87.8064 40.195L91.4604 38.0857L89.8244 49.3122L79.2822 45.1169L82.9361 43.0075C80.6116 38.9815 77.2683 35.6383 73.2422 33.3138C69.2161 30.9894 64.6491 29.7657 60.0002 29.7657C55.3513 29.7657 50.7843 30.9894 46.7582 33.3138C42.7321 35.6383 39.3888 38.9815 37.0643 43.0075C36.6841 43.639 36.0713 44.0959 35.3576 44.2801C34.644 44.4643 33.8865 44.361 33.2483 43.9924C32.61 43.6238 32.1419 43.0195 31.9448 42.3093C31.7476 41.5991 31.8371 40.8399 32.1939 40.195ZM87.8064 72.3044C84.9881 77.1851 80.9347 81.2379 76.0538 84.0557C71.1728 86.8735 65.6361 88.3569 60.0002 88.3569C54.3643 88.3569 48.8276 86.8735 43.9466 84.0557C39.0656 81.2379 35.0123 77.1851 32.1939 72.3044L28.54 74.4138L30.176 63.1872L40.7182 67.3825L37.0643 69.4919C39.3888 73.518 42.7321 76.8612 46.7582 79.1856C50.7843 81.51 55.3513 82.7338 60.0002 82.7338C64.6491 82.7338 69.2161 81.51 73.2422 79.1856C77.2683 76.8612 80.6116 73.518 82.9361 69.4919C83.3163 68.8605 83.9291 68.4035 84.6428 68.2193C85.3564 68.0351 86.1139 68.1384 86.7521 68.507C87.3904 68.8756 87.8584 69.48 88.0556 70.1902C88.2528 70.9003 88.1633 71.6595 87.8064 72.3044Z" fill="url(#paint2_linear_458_37897)" fill-opacity="0.45"/>
</g>
</g>
</g>

<defs>
<filter id="filter0_ii_458_37897" x="26.54" y="22.1426" width="66.9204" height="68.2139" filterUnits="userSpaceOnUse" color-interpolation-filters="sRGB">
<feFlood flood-opacity="0" result="BackgroundImageFix"/>
<feBlend mode="normal" in="SourceGraphic" in2="BackgroundImageFix" result="shape"/>
<feColorMatrix in="SourceAlpha" type="matrix" values="0 0 0 0 0 0 0 0 0 0 0 0 0 0 0 0 0 0 127 0" result="hardAlpha"/>
<feOffset dx="2" dy="2"/>
<feGaussianBlur stdDeviation="1"/>
<feComposite in2="hardAlpha" operator="arithmetic" k2="-1" k3="1"/>
<feColorMatrix type="matrix" values="0 0 0 0 1 0 0 0 0 1 0 0 0 0 1 0 0 0 0.8 0"/>
<feBlend mode="normal" in2="shape" result="effect1_innerShadow_458_37897"/>
<feColorMatrix in="SourceAlpha" type="matrix" values="0 0 0 0 0 0 0 0 0 0 0 0 0 0 0 0 0 0 127 0" result="hardAlpha"/>
<feOffset dx="-2" dy="-2"/>
<feGaussianBlur stdDeviation="1"/>
<feComposite in2="hardAlpha" operator="arithmetic" k2="-1" k3="1"/>
<feColorMatrix type="matrix" values="0 0 0 0 1 0 0 0 0 1 0 0 0 0 1 0 0 0 0.8 0"/>
<feBlend mode="normal" in2="effect1_innerShadow_458_37897" result="effect2_innerShadow_458_37897"/>
</filter>
<linearGradient id="paint0_linear_458_37897" x1="69.375" y1="35.625" x2="69.375" y2="70.3125" gradientUnits="userSpaceOnUse">
<stop stop-color="#00D37E"/>
<stop offset="1" stop-color="#054948"/>
</linearGradient>
<linearGradient id="paint1_linear_458_37897" x1="52.0312" y1="47.3438" x2="52.0312" y2="84.375" gradientUnits="userSpaceOnUse">
<stop stop-color="#00D37E"/>
<stop offset="1" stop-color="#054948"/>
</linearGradient>
<linearGradient id="paint2_linear_458_37897" x1="30.4689" y1="28.1247" x2="93.7502" y2="93.7497" gradientUnits="userSpaceOnUse">
<stop stop-color="#CAE6DE"/>
<stop offset="1" stop-color="#054948"/>
</linearGradient>
<clipPath id="clip0_458_37897">
<rect width="120" height="120" fill="white"/>
</clipPath>
</defs>
</svg>
