<svg width="120" height="120" viewBox="0 0 120 120" fill="none" xmlns="http://www.w3.org/2000/svg">
<g id="Document with Check" clip-path="url(#clip0_458_37897)">
<g id="certificate-pass 1">
<path id="Vector" d="M90.9375 13.125H20.625C16.7417 13.125 13.5938 16.273 13.5938 20.1562V83.4375C13.5938 87.3208 16.7417 90.4688 20.625 90.4688H90.9375C94.8208 90.4688 97.9688 87.3208 97.9688 83.4375V20.1562C97.9688 16.273 94.8208 13.125 90.9375 13.125Z" fill="url(#paint0_linear_458_37897)"/>
<path id="Vector_2" d="M86.7188 25.3125H24.8438C23.2904 25.3125 22.0312 26.5717 22.0312 28.125C22.0312 29.6783 23.2904 30.9375 24.8438 30.9375H86.7188C88.272 30.9375 89.5312 29.6783 89.5312 28.125C89.5312 26.5717 88.272 25.3125 86.7188 25.3125Z" fill="white"/>
<path id="Vector_3" d="M86.7188 36.5625H24.8438C23.2904 36.5625 22.0312 37.8217 22.0312 39.375C22.0312 40.9283 23.2904 42.1875 24.8438 42.1875H86.7188C88.272 42.1875 89.5312 40.9283 89.5312 39.375C89.5312 37.8217 88.272 36.5625 86.7188 36.5625Z" fill="white"/>
<path id="Vector_4" d="M69.8438 47.8125H24.8438C23.2904 47.8125 22.0312 49.0717 22.0312 50.625C22.0312 52.1783 23.2904 53.4375 24.8438 53.4375H69.8438C71.3971 53.4375 72.6562 52.1783 72.6562 50.625C72.6562 49.0717 71.3971 47.8125 69.8438 47.8125Z" fill="white"/>
<path id="Vector_5" d="M45.4688 74.5312H24.8438C23.2904 74.5312 22.0312 75.7904 22.0312 77.3438C22.0312 78.8971 23.2904 80.1562 24.8438 80.1562H45.4688C47.0221 80.1562 48.2812 78.8971 48.2812 77.3438C48.2812 75.7904 47.0221 74.5312 45.4688 74.5312Z" fill="white"/>
<g id="Group" filter="url(#filter0_ii_458_37897)">
<path id="Vector_6" d="M62.1094 77.3438C62.1094 71.4385 64.4552 65.7752 68.6308 61.5996C72.8064 57.424 78.4698 55.0781 84.375 55.0781C90.2802 55.0781 95.9436 57.424 100.119 61.5996C104.295 65.7752 106.641 71.4385 106.641 77.3438C106.641 83.249 104.295 88.9123 100.119 93.0879C95.9436 97.2635 90.2802 99.6094 84.375 99.6094C78.4698 99.6094 72.8064 97.2635 68.6308 93.0879C64.4552 88.9123 62.1094 83.249 62.1094 77.3438ZM68.9062 83.9062H82.5L79.4695 112.045C79.3023 113.598 78.6367 113.854 77.4727 112.812L72.4219 108.281L67.3711 112.812C66.207 113.854 65.7086 113.598 65.8758 112.045L68.9062 83.9062ZM86.25 83.9062H99.8438L102.874 112.045C103.041 113.598 102.543 113.854 101.379 112.812L96.3281 108.281L91.2773 112.812C90.1133 113.854 89.4477 113.598 89.2805 112.045L86.25 83.9062Z" fill="url(#paint1_linear_458_37897)" fill-opacity="0.45"/>
</g>
<path id="Vector_7" d="M72.0728 79.099L80.0415 87.0677C80.3137 87.3398 80.6389 87.5532 80.997 87.6946C81.355 87.8359 81.7382 87.9023 82.1229 87.8895C82.5076 87.8768 82.8856 87.7852 83.2335 87.6205C83.5814 87.4557 83.8918 87.2213 84.1454 86.9318L97.5048 71.6974C97.977 71.1341 98.2099 70.4083 98.1537 69.6754C98.0974 68.9425 97.7564 68.2607 97.2038 67.776C96.6511 67.2914 95.9307 67.0424 95.1967 67.0823C94.4627 67.1222 93.7735 67.4479 93.2767 67.9896L81.8978 80.9646L76.0524 75.1193C75.5247 74.5916 74.8089 74.2951 74.0626 74.2951C73.3163 74.2951 72.6005 74.5916 72.0728 75.1193C71.545 75.647 71.2485 76.3628 71.2485 77.1091C71.2485 77.8555 71.545 78.5712 72.0728 79.099Z" fill="white"/>
</g>
</g>

<defs>
<filter id="filter0_ii_458_37897" x="61.1094" y="54.0781" width="46.5312" height="60.3613" filterUnits="userSpaceOnUse" color-interpolation-filters="sRGB">
<feFlood flood-opacity="0" result="BackgroundImageFix"/>
<feBlend mode="normal" in="SourceGraphic" in2="BackgroundImageFix" result="shape"/>
<feColorMatrix in="SourceAlpha" type="matrix" values="0 0 0 0 0 0 0 0 0 0 0 0 0 0 0 0 0 0 127 0" result="hardAlpha"/>
<feOffset dx="1" dy="1"/>
<feGaussianBlur stdDeviation="0.5"/>
<feComposite in2="hardAlpha" operator="arithmetic" k2="-1" k3="1"/>
<feColorMatrix type="matrix" values="0 0 0 0 1 0 0 0 0 1 0 0 0 0 1 0 0 0 0.8 0"/>
<feBlend mode="normal" in2="shape" result="effect1_innerShadow_458_37897"/>
<feColorMatrix in="SourceAlpha" type="matrix" values="0 0 0 0 0 0 0 0 0 0 0 0 0 0 0 0 0 0 127 0" result="hardAlpha"/>
<feOffset dx="-1" dy="-1"/>
<feGaussianBlur stdDeviation="0.5"/>
<feComposite in2="hardAlpha" operator="arithmetic" k2="-1" k3="1"/>
<feColorMatrix type="matrix" values="0 0 0 0 1 0 0 0 0 1 0 0 0 0 1 0 0 0 0.8 0"/>
<feBlend mode="normal" in2="effect1_innerShadow_458_37897" result="effect2_innerShadow_458_37897"/>
</filter>
<linearGradient id="paint0_linear_458_37897" x1="55.7812" y1="13.125" x2="55.7812" y2="105.938" gradientUnits="userSpaceOnUse">
<stop stop-color="#00D37E"/>
<stop offset="1" stop-color="#054948"/>
</linearGradient>
<linearGradient id="paint1_linear_458_37897" x1="60.4688" y1="51.0937" x2="110.156" y2="106.641" gradientUnits="userSpaceOnUse">
<stop stop-color="#CAE6DE"/>
<stop offset="1" stop-color="#054948"/>
</linearGradient>
<clipPath id="clip0_458_37897">
<rect width="120" height="120" fill="white"/>
</clipPath>
</defs>
</svg>
