<svg width="120" height="120" viewBox="0 0 120 120" fill="none" xmlns="http://www.w3.org/2000/svg">
<g id="Form with Question" clip-path="url(#clip0_458_37897)">
<g id="quiz-checklist 1">
<path id="Vector" d="M84.8438 27.1875H18.2812C12.068 27.1875 7.03125 32.2243 7.03125 38.4375V95.625C7.03125 101.838 12.068 106.875 18.2812 106.875H84.8438C91.057 106.875 96.0938 101.838 96.0938 95.625V38.4375C96.0938 32.2243 91.057 27.1875 84.8438 27.1875Z" fill="url(#paint0_linear_458_37897)"/>
<path id="Vector_2" fill-rule="evenodd" clip-rule="evenodd" d="M19.2188 59.5312H22.9688C24.2632 59.5312 25.3125 60.5805 25.3125 61.875V65.625C25.3125 66.9195 24.2632 67.9688 22.9688 67.9688H19.2188C17.9243 67.9688 16.875 66.9195 16.875 65.625V61.875C16.875 60.5805 17.9243 59.5312 19.2188 59.5312ZM19.5645 63.1699L20.5078 64.1133L22.7402 61.8809C22.8941 61.727 23.1027 61.6406 23.3203 61.6406C23.5379 61.6406 23.7465 61.727 23.9004 61.8809C24.0542 62.0347 24.1407 62.2434 24.1407 62.4609C24.1407 62.6785 24.0542 62.8872 23.9004 63.041L21.0879 65.8535C21.0117 65.9297 20.9213 65.9901 20.8218 66.0314C20.7222 66.0726 20.6155 66.0938 20.5078 66.0938C20.4001 66.0938 20.2934 66.0726 20.1939 66.0314C20.0943 65.9901 20.0039 65.9297 19.9277 65.8535L18.4043 64.3301C18.2505 64.1762 18.164 63.9676 18.164 63.75C18.164 63.5324 18.2505 63.3238 18.4043 63.1699C18.5581 63.0161 18.7668 62.9296 18.9844 62.9296C19.2019 62.9296 19.4106 63.0161 19.5645 63.1699Z" fill="white"/>
<path id="Vector_3" d="M78.75 60.9375H33.75C32.1967 60.9375 30.9375 62.1967 30.9375 63.75C30.9375 65.3033 32.1967 66.5625 33.75 66.5625H78.75C80.3033 66.5625 81.5625 65.3033 81.5625 63.75C81.5625 62.1967 80.3033 60.9375 78.75 60.9375Z" fill="white"/>
<path id="Vector_4" d="M22.9688 75.9375H19.2188C17.9243 75.9375 16.875 76.9868 16.875 78.2812V82.0312C16.875 83.3257 17.9243 84.375 19.2188 84.375H22.9688C24.2632 84.375 25.3125 83.3257 25.3125 82.0312V78.2812C25.3125 76.9868 24.2632 75.9375 22.9688 75.9375Z" fill="white"/>
<path id="Vector_5" d="M66.5625 77.3438H33.75C32.1967 77.3438 30.9375 78.6029 30.9375 80.1562C30.9375 81.7096 32.1967 82.9688 33.75 82.9688H66.5625C68.1158 82.9688 69.375 81.7096 69.375 80.1562C69.375 78.6029 68.1158 77.3438 66.5625 77.3438Z" fill="white"/>
<path id="Vector_6" d="M22.9688 92.3438H19.2188C17.9243 92.3438 16.875 93.3931 16.875 94.6875V98.4375C16.875 99.7319 17.9243 100.781 19.2188 100.781H22.9688C24.2632 100.781 25.3125 99.7319 25.3125 98.4375V94.6875C25.3125 93.3931 24.2632 92.3438 22.9688 92.3438Z" fill="white"/>
<path id="Vector_7" d="M74.5312 93.75H33.75C32.1967 93.75 30.9375 95.0092 30.9375 96.5625C30.9375 98.1158 32.1967 99.375 33.75 99.375H74.5312C76.0846 99.375 77.3438 98.1158 77.3438 96.5625C77.3438 95.0092 76.0846 93.75 74.5312 93.75Z" fill="white"/>
<g id="Group" filter="url(#filter0_ii_458_37897)">
<path id="Vector_8" d="M69.1406 12.1875H104.297C109.474 12.1875 113.672 16.3849 113.672 21.5625V42.6562C113.672 47.8338 109.474 52.0312 104.297 52.0312H69.1406C63.963 52.0312 59.7656 47.8338 59.7656 42.6562V21.5625C59.7656 16.3849 63.963 12.1875 69.1406 12.1875ZM73.125 46.4062L84.8438 49.4531L69.1406 57.6562C67.2656 58.4375 66.7188 57.8906 67.5 56.0156L73.125 46.4062Z" fill="url(#paint1_linear_458_37897)" fill-opacity="0.45"/>
</g>
<path id="Vector_9" d="M78.9844 26.0156C78.9844 24.4859 79.438 22.9906 80.2878 21.7186C81.1377 20.4467 82.3457 19.4554 83.7589 18.87C85.1722 18.2846 86.7273 18.1314 88.2277 18.4299C89.728 18.7283 91.1061 19.4649 92.1878 20.5466C93.2695 21.6283 94.0061 23.0064 94.3045 24.5067C94.6029 26.007 94.4498 27.5622 93.8644 28.9754C93.279 30.3887 92.2877 31.5967 91.0157 32.4465C89.7438 33.2964 88.2485 33.75 86.7188 33.75V29.0625C87.3214 29.0625 87.9104 28.8838 88.4115 28.549C88.9126 28.2142 89.3031 27.7384 89.5337 27.1816C89.7643 26.6249 89.8246 26.0122 89.7071 25.4212C89.5895 24.8302 89.2993 24.2873 88.8732 23.8612C88.4471 23.435 87.9042 23.1449 87.3132 23.0273C86.7221 22.9097 86.1095 22.9701 85.5528 23.2007C84.996 23.4313 84.5202 23.8218 84.1854 24.3229C83.8506 24.8239 83.6719 25.413 83.6719 26.0156H78.9844Z" fill="white"/>
<path id="Vector_10" d="M81.3281 28.3594C82.6225 28.3594 83.6719 27.31 83.6719 26.0156C83.6719 24.7212 82.6225 23.6719 81.3281 23.6719C80.0337 23.6719 78.9844 24.7212 78.9844 26.0156C78.9844 27.31 80.0337 28.3594 81.3281 28.3594Z" fill="white"/>
<path id="Vector_11" d="M89.0625 31.4062C89.0625 30.1118 88.0132 29.0625 86.7188 29.0625C85.4243 29.0625 84.375 30.1118 84.375 31.4062V35.625C84.375 36.9194 85.4243 37.9688 86.7188 37.9688C88.0132 37.9688 89.0625 36.9194 89.0625 35.625V31.4062Z" fill="white"/>
<path id="Vector_12" d="M86.7188 45.8203C88.2073 45.8203 89.4141 44.6136 89.4141 43.125C89.4141 41.6364 88.2073 40.4297 86.7188 40.4297C85.2302 40.4297 84.0234 41.6364 84.0234 43.125C84.0234 44.6136 85.2302 45.8203 86.7188 45.8203Z" fill="white"/>
</g>
</g>

<defs>
<filter id="filter0_ii_458_37897" x="58.7656" y="11.1875" width="55.9062" height="47.8135" filterUnits="userSpaceOnUse" color-interpolation-filters="sRGB">
<feFlood flood-opacity="0" result="BackgroundImageFix"/>
<feBlend mode="normal" in="SourceGraphic" in2="BackgroundImageFix" result="shape"/>
<feColorMatrix in="SourceAlpha" type="matrix" values="0 0 0 0 0 0 0 0 0 0 0 0 0 0 0 0 0 0 127 0" result="hardAlpha"/>
<feOffset dx="1" dy="1"/>
<feGaussianBlur stdDeviation="0.5"/>
<feComposite in2="hardAlpha" operator="arithmetic" k2="-1" k3="1"/>
<feColorMatrix type="matrix" values="0 0 0 0 1 0 0 0 0 1 0 0 0 0 1 0 0 0 0.8 0"/>
<feBlend mode="normal" in2="shape" result="effect1_innerShadow_458_37897"/>
<feColorMatrix in="SourceAlpha" type="matrix" values="0 0 0 0 0 0 0 0 0 0 0 0 0 0 0 0 0 0 127 0" result="hardAlpha"/>
<feOffset dx="-1" dy="-1"/>
<feGaussianBlur stdDeviation="0.5"/>
<feComposite in2="hardAlpha" operator="arithmetic" k2="-1" k3="1"/>
<feColorMatrix type="matrix" values="0 0 0 0 1 0 0 0 0 1 0 0 0 0 1 0 0 0 0.8 0"/>
<feBlend mode="normal" in2="effect1_innerShadow_458_37897" result="effect2_innerShadow_458_37897"/>
</filter>
<linearGradient id="paint0_linear_458_37897" x1="51.5625" y1="27.1875" x2="51.5625" y2="125.625" gradientUnits="userSpaceOnUse">
<stop stop-color="#00D37E"/>
<stop offset="1" stop-color="#054948"/>
</linearGradient>
<linearGradient id="paint1_linear_458_37897" x1="61.4062" y1="10.7813" x2="117.187" y2="62.3438" gradientUnits="userSpaceOnUse">
<stop stop-color="#CAE6DE"/>
<stop offset="1" stop-color="#054948"/>
</linearGradient>
<clipPath id="clip0_458_37897">
<rect width="120" height="120" fill="white"/>
</clipPath>
</defs>
</svg>
